<?xml version="1.0" standalone="no"?>
<!DOCTYPE svg PUBLIC "-//W3C//DTD SVG 20010904//EN"
 "http://www.w3.org/TR/2001/REC-SVG-20010904/DTD/svg10.dtd">
<svg version="1.0" xmlns="http://www.w3.org/2000/svg"
 width="500.000000pt" height="500.000000pt" viewBox="0 0 500.000000 500.000000"
 preserveAspectRatio="xMidYMid meet">
<metadata>
Created by potrace 1.14, written by Peter Selinger 2001-2017
</metadata>
<g transform="translate(0.000000,500.000000) scale(0.100000,-0.100000)"
fill="#000000" stroke="none">
<path d="M1173 4038 c3 -7 251 -649 553 -1425 l548 -1413 191 0 191 0 551
1408 c304 774 555 1415 559 1425 6 16 -5 17 -186 15 l-192 -3 -389 -1045
c-215 -575 -419 -1135 -455 -1245 -37 -110 -69 -208 -73 -218 -4 -13 -20 26
-48 120 -23 76 -223 645 -445 1265 l-403 1128 -204 0 c-158 0 -202 -3 -198
-12z"/>
</g>
</svg>
