<svg width="449.6" height="74.501" viewBox="0 0 449.6 74.501" xmlns="http://www.w3.org/2000/svg"><g id="svgGroup" stroke-linecap="round" fill-rule="evenodd" font-size="9pt" stroke="#08091f" stroke-width="0.25mm" fill="#08091f" style="stroke:#08091f;stroke-width:0.25mm;fill:#08091f"><path d="M 406.3 73.5 L 406.3 0 L 416.8 0 L 416.8 27.6 L 416.4 36.1 Q 418.3 31.9 422.5 29.15 A 16.837 16.837 0 0 1 430.083 26.513 A 21.208 21.208 0 0 1 432.3 26.4 A 27.461 27.461 0 0 1 436.415 26.688 Q 438.567 27.015 440.303 27.712 A 11.961 11.961 0 0 1 443.2 29.35 A 13.727 13.727 0 0 1 447.612 35.394 A 18.098 18.098 0 0 1 448.3 37.6 A 38.052 38.052 0 0 1 449.04 41.622 Q 449.6 45.822 449.6 51.4 L 449.6 73.5 L 438.9 73.5 L 438.9 51.3 Q 438.9 45.5 438.25 42.2 Q 437.6 38.9 435.65 37.2 Q 434.072 35.825 431.349 35.562 A 14.067 14.067 0 0 0 430 35.5 A 10.845 10.845 0 0 0 426.041 36.275 A 14.408 14.408 0 0 0 423.95 37.3 Q 420.9 39.1 418.9 42.55 A 14.646 14.646 0 0 0 417.136 47.616 A 19.389 19.389 0 0 0 416.9 50.7 L 416.9 73.5 L 406.3 73.5 Z M 34 73.5 L 0 0 L 12.7 0 L 34.7 50.5 L 56.8 0 L 69.4 0 L 35.5 73.5 L 34 73.5 Z M 214.2 73.5 L 214.2 27.6 L 224.8 27.6 L 224.9 36 A 16.004 16.004 0 0 1 230.396 29.443 A 19.203 19.203 0 0 1 230.9 29.1 A 16.379 16.379 0 0 1 238.242 26.52 A 20.751 20.751 0 0 1 240.5 26.4 A 27.461 27.461 0 0 1 244.615 26.688 Q 246.767 27.015 248.503 27.712 A 11.961 11.961 0 0 1 251.4 29.35 A 13.727 13.727 0 0 1 255.812 35.394 A 18.098 18.098 0 0 1 256.5 37.6 A 38.052 38.052 0 0 1 257.24 41.622 Q 257.8 45.822 257.8 51.4 L 257.8 73.5 L 247 73.5 L 247 51.7 Q 247 44.829 245.94 40.983 A 13.304 13.304 0 0 0 245.3 39.15 Q 243.615 35.333 238.39 35.3 A 14.461 14.461 0 0 0 238.3 35.3 A 10.662 10.662 0 0 0 234.535 36.014 A 14.518 14.518 0 0 0 232.2 37.15 Q 229.1 39 227.05 42.5 A 14.833 14.833 0 0 0 225.2 47.88 A 19.238 19.238 0 0 0 225 50.7 L 225 73.5 L 214.2 73.5 Z M 157.9 53.3 L 157.9 27.6 L 168.7 27.6 L 168.7 50.6 Q 168.7 55.743 169.229 58.81 A 19.973 19.973 0 0 0 169.35 59.45 A 10.427 10.427 0 0 0 169.95 61.421 Q 170.445 62.586 171.205 63.415 A 5.823 5.823 0 0 0 171.95 64.1 A 6.216 6.216 0 0 0 173.771 65.043 Q 174.642 65.337 175.715 65.476 A 16.288 16.288 0 0 0 177.8 65.6 A 9.943 9.943 0 0 0 182.465 64.418 A 12.149 12.149 0 0 0 183.2 64 Q 185.8 62.4 187.45 59.65 Q 189.1 56.9 189.1 53.6 L 189.1 27.6 L 199.8 27.6 L 199.8 73.5 L 191 73.5 L 189.8 66.8 A 17.213 17.213 0 0 1 186.592 70.555 A 14.947 14.947 0 0 1 183.55 72.6 A 16.866 16.866 0 0 1 179.128 74.083 Q 177.185 74.461 174.963 74.496 A 29.005 29.005 0 0 1 174.5 74.5 A 25.122 25.122 0 0 1 169.873 74.105 Q 167.328 73.627 165.398 72.571 A 10.619 10.619 0 0 1 161.45 68.9 Q 158.822 64.755 158.14 58.198 A 47.382 47.382 0 0 1 157.9 53.3 Z M 347.6 54.3 L 314.6 54.3 A 22.605 22.605 0 0 0 315.491 57.761 Q 316.709 61.238 318.95 63.1 Q 321.692 65.378 326.25 65.734 A 22.488 22.488 0 0 0 328 65.8 Q 331.373 65.8 333.906 65.405 A 20.847 20.847 0 0 0 335.9 65 Q 339 64.2 341.6 62.8 L 344.9 70.5 A 17.224 17.224 0 0 1 342.772 71.644 Q 340.788 72.55 338.1 73.3 Q 333.8 74.5 327.7 74.5 A 34.28 34.28 0 0 1 321.706 74.004 Q 317.352 73.23 314 71.25 A 20.618 20.618 0 0 1 307.974 65.963 A 19.572 19.572 0 0 1 305.9 62.55 A 27.009 27.009 0 0 1 303.331 52.009 A 31.673 31.673 0 0 1 303.3 50.6 A 29.561 29.561 0 0 1 304.039 43.85 A 23.403 23.403 0 0 1 306.35 37.8 Q 309.4 32.3 314.8 29.35 A 24.256 24.256 0 0 1 324.498 26.504 A 29.655 29.655 0 0 1 327 26.4 A 30.481 30.481 0 0 1 332.953 26.943 Q 339.169 28.182 342.75 32.25 Q 347.198 37.303 347.804 45.9 A 39.833 39.833 0 0 1 347.9 48.7 A 53.285 53.285 0 0 1 347.702 53.22 A 59.851 59.851 0 0 1 347.6 54.3 Z M 395.3 31.1 L 390.5 39.8 A 15.353 15.353 0 0 0 386.833 37.042 A 12.299 12.299 0 0 0 381 35.6 A 16.779 16.779 0 0 0 377.128 36.02 A 10.8 10.8 0 0 0 371.25 39.5 Q 368.028 43.251 367.905 49.409 A 24.656 24.656 0 0 0 367.9 49.9 Q 367.9 57.3 371.35 61.4 A 11.266 11.266 0 0 0 378.573 65.328 A 16.446 16.446 0 0 0 381 65.5 Q 384.1 65.5 387.05 64.6 A 22.836 22.836 0 0 0 388.88 63.961 Q 390.538 63.297 391.6 62.5 L 395.5 70.1 A 14.569 14.569 0 0 1 393.604 71.326 Q 391.819 72.306 389.35 73.15 A 25.041 25.041 0 0 1 383.8 74.34 A 31.241 31.241 0 0 1 380.6 74.5 A 26.988 26.988 0 0 1 373.001 73.46 A 23.692 23.692 0 0 1 368.35 71.55 Q 362.9 68.6 359.7 63.05 Q 356.5 57.5 356.5 50 A 28.907 28.907 0 0 1 357.215 43.435 A 22.844 22.844 0 0 1 359.45 37.55 Q 362.4 32.2 367.75 29.3 A 23.844 23.844 0 0 1 375.886 26.683 A 30.428 30.428 0 0 1 380.1 26.4 Q 384.778 26.4 388.326 27.452 A 19.768 19.768 0 0 1 389.25 27.75 A 23.836 23.836 0 0 1 391.905 28.854 Q 393.231 29.508 394.279 30.271 A 12.147 12.147 0 0 1 395.3 31.1 Z M 275.7 73.5 L 275.7 36.4 L 267.6 36.4 L 267.6 27.6 L 275.7 27.6 L 275.7 8.9 L 286.6 6.5 L 286.6 27.6 L 297.2 27.6 L 297.2 36.4 L 286.6 36.4 L 286.6 73.5 L 275.7 73.5 Z M 132.7 73.5 L 132.7 0 L 143.4 0 L 143.4 73.5 L 132.7 73.5 Z M 96.3 74.5 Q 89.2 74.5 83.7 71.3 Q 78.2 68.1 75.2 62.6 A 24.832 24.832 0 0 1 72.215 51.336 A 29.377 29.377 0 0 1 72.2 50.4 A 25.594 25.594 0 0 1 74.073 40.58 A 24.57 24.57 0 0 1 75.15 38.3 Q 78.1 32.8 83.6 29.6 Q 89.1 26.4 96.3 26.4 Q 103.5 26.4 108.95 29.6 Q 114.4 32.8 117.35 38.3 A 25.101 25.101 0 0 1 120.297 49.989 A 29.305 29.305 0 0 1 120.3 50.4 Q 120.3 57.1 117.3 62.6 Q 114.3 68.1 108.85 71.3 A 23.268 23.268 0 0 1 99.537 74.324 A 29.148 29.148 0 0 1 96.3 74.5 Z M 96.6 65.7 A 12.549 12.549 0 0 0 100.871 65.004 A 10.698 10.698 0 0 0 105.75 61.4 A 15.567 15.567 0 0 0 108.739 54.629 A 21.541 21.541 0 0 0 109.1 50.6 A 19.419 19.419 0 0 0 108.374 45.174 A 15.593 15.593 0 0 0 105.5 39.65 A 11.475 11.475 0 0 0 97.175 35.246 A 14.772 14.772 0 0 0 96 35.2 Q 90.3 35.2 86.85 39.6 A 15.945 15.945 0 0 0 83.72 46.782 A 21.856 21.856 0 0 0 83.4 50.6 A 18.286 18.286 0 0 0 84.156 55.968 A 14.977 14.977 0 0 0 87.1 61.35 A 11.812 11.812 0 0 0 95.696 65.673 A 14.835 14.835 0 0 0 96.6 65.7 Z M 314.6 46.8 L 337.4 46.8 A 26.245 26.245 0 0 0 337.403 46.377 Q 337.403 42.992 336.503 40.741 A 7.169 7.169 0 0 0 334.7 38.05 A 9.102 9.102 0 0 0 331.182 36.101 Q 329.836 35.688 328.222 35.559 A 19.102 19.102 0 0 0 326.7 35.5 A 14.256 14.256 0 0 0 321.758 36.294 Q 317.552 37.842 315.722 42.407 A 18.937 18.937 0 0 0 314.6 46.8 Z" vector-effect="non-scaling-stroke"/></g></svg>