<svg width="470" height="75.201" viewBox="0 0 470 75.201" xmlns="http://www.w3.org/2000/svg"><g id="svgGroup" stroke-linecap="round" fill-rule="evenodd" font-size="9pt" stroke="#ffffff" stroke-width="0.25mm" fill="#ffffff" style="stroke:#ffffff;stroke-width:0.25mm;fill:#ffffff"><path d="M 435.3 74 L 426.3 74 L 426.3 0 L 435.3 0 L 435.3 30.3 Q 438.1 26.2 442.4 23.5 A 17.572 17.572 0 0 1 449.525 20.991 A 22.595 22.595 0 0 1 452.5 20.8 A 23.225 23.225 0 0 1 457.565 21.318 Q 462.659 22.456 465.65 26.1 Q 469.775 31.126 469.988 39.209 A 33.764 33.764 0 0 1 470 40.1 L 470 74 L 461 74 L 461 41.1 Q 461 35.5 458.4 32.1 A 8.42 8.42 0 0 0 452.242 28.753 A 11.979 11.979 0 0 0 451.1 28.7 A 13.23 13.23 0 0 0 444.387 30.566 A 17.586 17.586 0 0 0 442.35 31.95 Q 438.2 35.2 435.3 39.6 L 435.3 74 Z M 36.4 74 L 25.7 74 L 0 6.5 L 9.3 2.9 L 31.3 63.6 L 53.4 3.2 L 62 6.5 L 36.4 74 Z M 164.9 55.8 L 164.9 22 L 173.9 22 L 173.9 54.6 A 22.981 22.981 0 0 0 174.154 58.134 Q 174.442 59.981 175.057 61.469 A 10.136 10.136 0 0 0 176.5 63.95 A 8.404 8.404 0 0 0 181.613 66.971 A 12.807 12.807 0 0 0 184.1 67.2 Q 188.2 67.2 192.05 65.55 Q 195.9 63.9 198.9 61.1 L 198.9 22 L 207.9 22 L 207.9 60.5 A 15.602 15.602 0 0 0 208.002 62.354 Q 208.334 65.116 209.75 66.15 Q 211.6 67.5 213.8 67.5 L 211.9 74.5 Q 202.6 74.5 200.4 67.1 Q 196.9 70.7 192.3 72.95 Q 187.7 75.2 182.4 75.2 Q 177.9 75.2 173.9 73.3 A 14.441 14.441 0 0 1 168.39 68.661 A 18.266 18.266 0 0 1 167.4 67.15 A 16.24 16.24 0 0 1 165.736 63.057 Q 164.9 59.905 164.9 55.8 Z M 234.8 74 L 225.8 74 L 225.8 22 L 234.5 22 L 234.5 30.7 Q 237.3 26.5 241.65 23.65 A 17.316 17.316 0 0 1 248.756 21.025 A 22.629 22.629 0 0 1 252 20.8 A 23.225 23.225 0 0 1 257.065 21.318 Q 262.159 22.456 265.15 26.1 Q 269.275 31.126 269.488 39.209 A 33.764 33.764 0 0 1 269.5 40.1 L 269.5 74 L 260.5 74 L 260.5 41.1 A 19.265 19.265 0 0 0 260.158 37.359 Q 259.719 35.145 258.719 33.397 A 10.966 10.966 0 0 0 257.85 32.1 A 8.579 8.579 0 0 0 251.573 28.747 A 12.061 12.061 0 0 0 250.5 28.7 A 13.122 13.122 0 0 0 243.651 30.664 A 17.353 17.353 0 0 0 241.8 31.95 Q 237.7 35.2 234.8 39.6 L 234.8 74 Z M 366.8 51.7 L 330.4 51.7 A 24.088 24.088 0 0 0 331.539 56.725 Q 332.875 60.538 335.5 63.1 Q 339.7 67.2 346.6 67.2 Q 351.1 67.2 354.7 66.25 Q 358.3 65.3 361.6 63.8 L 363.7 71.5 A 40.77 40.77 0 0 1 359.365 73.126 A 51.863 51.863 0 0 1 355.6 74.15 A 38.914 38.914 0 0 1 350.508 74.969 A 52.025 52.025 0 0 1 345.5 75.2 A 28.318 28.318 0 0 1 337.754 74.195 A 21.108 21.108 0 0 1 327.75 68.05 A 23.521 23.521 0 0 1 322.545 58.51 Q 321.2 53.845 321.2 48 A 35.359 35.359 0 0 1 322.033 40.178 A 28.84 28.84 0 0 1 324.15 34.05 A 24.642 24.642 0 0 1 329.166 26.968 A 22.887 22.887 0 0 1 332.4 24.35 A 21.048 21.048 0 0 1 342.659 20.878 A 26.205 26.205 0 0 1 344.7 20.8 Q 352.2 20.8 357.15 24.05 Q 362.1 27.3 364.6 32.8 A 28.185 28.185 0 0 1 367.026 42.664 A 33.434 33.434 0 0 1 367.1 44.9 A 75.204 75.204 0 0 1 366.809 51.597 A 69.426 69.426 0 0 1 366.8 51.7 Z M 287 56.1 L 287 31.7 L 278 31.7 L 278 23.9 L 287.2 23.9 L 289.1 7.5 L 296 7.5 L 296 23.9 L 310.4 23.9 L 310.4 31.7 L 296 31.7 L 296 56.8 A 21.559 21.559 0 0 0 296.168 59.596 Q 296.641 63.202 298.45 64.9 Q 300.9 67.2 304.3 67.2 Q 306.8 67.2 309.05 66.4 Q 311.3 65.6 313.2 64.5 L 315.7 71.7 A 18.546 18.546 0 0 1 314.082 72.556 Q 313.28 72.935 312.334 73.308 A 43.365 43.365 0 0 1 310.3 74.05 Q 306.9 75.2 303.2 75.2 Q 295.7 75.2 291.35 70.25 A 16.116 16.116 0 0 1 288.122 64.348 Q 287.359 61.917 287.115 58.98 A 34.777 34.777 0 0 1 287 56.1 Z M 415 23.9 L 412.3 31.5 A 30.422 30.422 0 0 0 409.396 30.224 A 23.42 23.42 0 0 0 406.95 29.45 A 20.543 20.543 0 0 0 403.907 28.924 A 26.355 26.355 0 0 0 401.3 28.8 A 15.889 15.889 0 0 0 394.047 30.443 A 16.132 16.132 0 0 0 389.55 33.85 Q 384.8 38.9 384.8 47.8 A 25.192 25.192 0 0 0 385.505 53.86 A 21.45 21.45 0 0 0 386.8 57.6 A 18.564 18.564 0 0 0 389.71 62.177 A 16.275 16.275 0 0 0 392.35 64.6 Q 395.9 67.2 400.7 67.2 Q 403.865 67.2 406.268 66.61 A 15.08 15.08 0 0 0 407.2 66.35 Q 409.889 65.503 412.976 63.912 A 49.095 49.095 0 0 0 413 63.9 L 415.8 71.5 Q 412.7 73.2 408.85 74.2 Q 405 75.2 400.1 75.2 A 26.803 26.803 0 0 1 393.061 74.31 A 22.074 22.074 0 0 1 387.15 71.75 Q 381.6 68.3 378.6 62.15 Q 375.6 56 375.6 48 Q 375.6 40.5 378.65 34.3 Q 381.7 28.1 387.4 24.45 A 23.067 23.067 0 0 1 397.068 21.029 A 29.608 29.608 0 0 1 400.8 20.8 Q 405.2 20.8 408.55 21.6 Q 411.9 22.4 415 23.9 Z M 130.3 57.7 L 130.3 0 L 139.3 0 L 139.3 56.8 A 20.644 20.644 0 0 0 139.488 59.688 Q 139.95 62.952 141.55 64.8 A 7.363 7.363 0 0 0 146.134 67.276 A 10.724 10.724 0 0 0 147.8 67.4 Q 149.7 67.4 151.55 66.95 A 22.192 22.192 0 0 0 153.013 66.544 Q 153.948 66.247 154.7 65.9 L 156.9 73.2 Q 155.501 73.822 153.588 74.323 A 34.978 34.978 0 0 1 152.45 74.6 A 23.816 23.816 0 0 1 149.295 75.085 A 30.514 30.514 0 0 1 146.6 75.2 A 20.862 20.862 0 0 1 141.71 74.646 A 17.544 17.544 0 0 1 138.3 73.45 A 12.683 12.683 0 0 1 132.975 68.685 A 15.856 15.856 0 0 1 132.45 67.8 Q 130.716 64.654 130.38 60.012 A 32.105 32.105 0 0 1 130.3 57.7 Z M 79.6 71.75 A 24.559 24.559 0 0 0 84.198 73.84 Q 88.253 75.2 92.9 75.2 Q 100.3 75.2 106.15 71.8 Q 112 68.4 115.4 62.25 A 26.255 26.255 0 0 0 118.053 55.109 A 34.184 34.184 0 0 0 118.8 47.8 A 34.542 34.542 0 0 0 118.315 41.891 A 25.795 25.795 0 0 0 115.35 33.45 Q 111.9 27.4 106.05 24.1 A 24.848 24.848 0 0 0 101.409 22.073 A 27.738 27.738 0 0 0 92.9 20.8 A 31.325 31.325 0 0 0 91.32 20.839 A 26.169 26.169 0 0 0 79.7 24.1 Q 73.8 27.4 70.4 33.5 A 26.023 26.023 0 0 0 67.651 41.09 A 35.006 35.006 0 0 0 67 48 A 34.82 34.82 0 0 0 67.265 52.354 A 27.451 27.451 0 0 0 70.35 62.15 Q 73.7 68.3 79.6 71.75 Z M 92.9 67.2 Q 100.8 67.2 105.2 61.85 A 18.802 18.802 0 0 0 109.019 53.76 A 27.105 27.105 0 0 0 109.6 48 Q 109.6 42.8 107.4 38.45 A 19.198 19.198 0 0 0 103.228 32.881 A 18.17 18.17 0 0 0 101.45 31.45 Q 97.7 28.8 92.9 28.8 A 19.249 19.249 0 0 0 87.674 29.472 A 14.037 14.037 0 0 0 80.6 34 A 17.878 17.878 0 0 0 76.926 41.374 Q 76.2 44.306 76.2 47.8 Q 76.2 53 78.4 57.45 A 19.437 19.437 0 0 0 81.93 62.49 A 17.627 17.627 0 0 0 84.35 64.55 Q 88.1 67.2 92.9 67.2 Z M 330.3 44.4 L 358.8 44.4 A 24.355 24.355 0 0 0 358.396 39.815 Q 357.9 37.231 356.796 35.207 A 12.422 12.422 0 0 0 355 32.7 A 12.488 12.488 0 0 0 348.039 28.924 A 18.395 18.395 0 0 0 344.5 28.6 A 13.58 13.58 0 0 0 339.388 29.535 A 12.524 12.524 0 0 0 334.9 32.65 Q 331.1 36.7 330.3 44.4 Z" vector-effect="non-scaling-stroke"/></g></svg>